<mxfile host="app.diagrams.net" modified="2022-05-21T12:39:09.381Z" agent="5.0 (Windows NT 10.0; Win64; x64) AppleWebKit/537.36 (KHTML, like Gecko) Chrome/101.0.4951.67 Safari/537.36" etag="jrKAVp4syulsiGjlip9c" version="18.1.1" type="github">
  <diagram id="z-30bUCffygZpy31_x2s" name="internet-gateway">
    <mxGraphModel dx="983" dy="576" grid="1" gridSize="10" guides="1" tooltips="1" connect="1" arrows="1" fold="1" page="1" pageScale="1" pageWidth="827" pageHeight="1169" math="0" shadow="0">
      <root>
        <mxCell id="0" />
        <mxCell id="1" parent="0" />
        <mxCell id="2l_hlP95QKtVeVs8BIYT-2" value="&lt;b&gt;Region (1)&lt;/b&gt;" style="points=[[0,0],[0.25,0],[0.5,0],[0.75,0],[1,0],[1,0.25],[1,0.5],[1,0.75],[1,1],[0.75,1],[0.5,1],[0.25,1],[0,1],[0,0.75],[0,0.5],[0,0.25]];outlineConnect=0;gradientColor=none;html=1;whiteSpace=wrap;fontSize=12;fontStyle=0;container=1;pointerEvents=0;collapsible=0;recursiveResize=0;shape=mxgraph.aws4.group;grIcon=mxgraph.aws4.group_region;strokeColor=#147EBA;fillColor=none;verticalAlign=top;align=left;spacingLeft=30;fontColor=#147EBA;dashed=1;strokeWidth=2;" vertex="1" parent="1">
          <mxGeometry x="110" y="20" width="840" height="480" as="geometry" />
        </mxCell>
        <mxCell id="2l_hlP95QKtVeVs8BIYT-4" value="&lt;b&gt;VPC&lt;/b&gt;" style="points=[[0,0],[0.25,0],[0.5,0],[0.75,0],[1,0],[1,0.25],[1,0.5],[1,0.75],[1,1],[0.75,1],[0.5,1],[0.25,1],[0,1],[0,0.75],[0,0.5],[0,0.25]];outlineConnect=0;gradientColor=none;html=1;whiteSpace=wrap;fontSize=12;fontStyle=0;container=1;pointerEvents=0;collapsible=0;recursiveResize=0;shape=mxgraph.aws4.group;grIcon=mxgraph.aws4.group_vpc;strokeColor=#248814;fillColor=none;verticalAlign=top;align=left;spacingLeft=30;fontColor=#AAB7B8;dashed=0;" vertex="1" parent="2l_hlP95QKtVeVs8BIYT-2">
          <mxGeometry x="50" y="40" width="770" height="410" as="geometry" />
        </mxCell>
        <mxCell id="2l_hlP95QKtVeVs8BIYT-12" style="edgeStyle=orthogonalEdgeStyle;rounded=0;orthogonalLoop=1;jettySize=auto;html=1;fontSize=13;startArrow=classic;startFill=1;" edge="1" parent="2l_hlP95QKtVeVs8BIYT-4" source="2l_hlP95QKtVeVs8BIYT-9" target="2l_hlP95QKtVeVs8BIYT-11">
          <mxGeometry relative="1" as="geometry" />
        </mxCell>
        <mxCell id="2l_hlP95QKtVeVs8BIYT-9" value="&lt;b style=&quot;font-size: 13px;&quot;&gt;Internet&lt;br&gt;Gateway&lt;/b&gt;" style="sketch=0;outlineConnect=0;fontColor=#232F3E;gradientColor=none;fillColor=#4D27AA;strokeColor=none;dashed=0;verticalLabelPosition=bottom;verticalAlign=top;align=center;html=1;fontSize=12;fontStyle=0;aspect=fixed;pointerEvents=1;shape=mxgraph.aws4.internet_gateway;" vertex="1" parent="2l_hlP95QKtVeVs8BIYT-4">
          <mxGeometry x="-25" y="40" width="50" height="50" as="geometry" />
        </mxCell>
        <mxCell id="2l_hlP95QKtVeVs8BIYT-11" value="&lt;b&gt;Router&lt;/b&gt;" style="sketch=0;outlineConnect=0;fontColor=#232F3E;gradientColor=none;fillColor=#4D27AA;strokeColor=none;dashed=0;verticalLabelPosition=bottom;verticalAlign=top;align=center;html=1;fontSize=12;fontStyle=0;aspect=fixed;pointerEvents=1;shape=mxgraph.aws4.customer_gateway;" vertex="1" parent="2l_hlP95QKtVeVs8BIYT-4">
          <mxGeometry x="61" y="45" width="40" height="40" as="geometry" />
        </mxCell>
        <mxCell id="2l_hlP95QKtVeVs8BIYT-3" value="Availability Zone (1)" style="fillColor=none;strokeColor=#147EBA;dashed=1;verticalAlign=top;fontStyle=1;fontColor=#147EBA;strokeWidth=2;" vertex="1" parent="2l_hlP95QKtVeVs8BIYT-2">
          <mxGeometry x="170" y="10" width="612" height="460" as="geometry" />
        </mxCell>
        <mxCell id="2l_hlP95QKtVeVs8BIYT-6" value="&lt;b&gt;Public subnet&lt;/b&gt;" style="points=[[0,0],[0.25,0],[0.5,0],[0.75,0],[1,0],[1,0.25],[1,0.5],[1,0.75],[1,1],[0.75,1],[0.5,1],[0.25,1],[0,1],[0,0.75],[0,0.5],[0,0.25]];outlineConnect=0;gradientColor=none;html=1;whiteSpace=wrap;fontSize=12;fontStyle=0;container=1;pointerEvents=0;collapsible=0;recursiveResize=0;shape=mxgraph.aws4.group;grIcon=mxgraph.aws4.group_security_group;grStroke=0;strokeColor=#248814;fillColor=#E9F3E6;verticalAlign=top;align=left;spacingLeft=30;fontColor=#248814;dashed=0;" vertex="1" parent="2l_hlP95QKtVeVs8BIYT-2">
          <mxGeometry x="208" y="90" width="260" height="330" as="geometry" />
        </mxCell>
        <mxCell id="2l_hlP95QKtVeVs8BIYT-5" value="&lt;b&gt;Private subnet&lt;/b&gt;" style="points=[[0,0],[0.25,0],[0.5,0],[0.75,0],[1,0],[1,0.25],[1,0.5],[1,0.75],[1,1],[0.75,1],[0.5,1],[0.25,1],[0,1],[0,0.75],[0,0.5],[0,0.25]];outlineConnect=0;gradientColor=none;html=1;whiteSpace=wrap;fontSize=12;fontStyle=0;container=1;pointerEvents=0;collapsible=0;recursiveResize=0;shape=mxgraph.aws4.group;grIcon=mxgraph.aws4.group_security_group;grStroke=0;strokeColor=#147EBA;fillColor=#E6F2F8;verticalAlign=top;align=left;spacingLeft=30;fontColor=#147EBA;dashed=0;" vertex="1" parent="2l_hlP95QKtVeVs8BIYT-2">
          <mxGeometry x="490" y="90" width="250" height="330" as="geometry" />
        </mxCell>
        <mxCell id="2l_hlP95QKtVeVs8BIYT-10" value="&lt;b style=&quot;font-size: 13px;&quot;&gt;Route&lt;br&gt;Table&lt;/b&gt;" style="sketch=0;outlineConnect=0;fontColor=#232F3E;gradientColor=none;fillColor=#4D27AA;strokeColor=none;dashed=0;verticalLabelPosition=bottom;verticalAlign=top;align=center;html=1;fontSize=12;fontStyle=0;aspect=fixed;pointerEvents=1;shape=mxgraph.aws4.route_table;" vertex="1" parent="2l_hlP95QKtVeVs8BIYT-2">
          <mxGeometry x="190" y="299" width="41.05" height="40" as="geometry" />
        </mxCell>
        <mxCell id="2l_hlP95QKtVeVs8BIYT-13" value="Security group" style="fillColor=none;strokeColor=#DD3522;verticalAlign=top;fontStyle=1;fontColor=#DD3522;fontSize=13;" vertex="1" parent="2l_hlP95QKtVeVs8BIYT-2">
          <mxGeometry x="250" y="270" width="188" height="129" as="geometry" />
        </mxCell>
        <mxCell id="2l_hlP95QKtVeVs8BIYT-15" value="&lt;b&gt;Public EC2&lt;br&gt;Instance&lt;/b&gt;" style="sketch=0;outlineConnect=0;fontColor=#232F3E;gradientColor=none;fillColor=#D45B07;strokeColor=none;dashed=0;verticalLabelPosition=bottom;verticalAlign=top;align=center;html=1;fontSize=12;fontStyle=0;aspect=fixed;pointerEvents=1;shape=mxgraph.aws4.instance2;" vertex="1" parent="2l_hlP95QKtVeVs8BIYT-2">
          <mxGeometry x="314" y="310.5" width="48" height="48" as="geometry" />
        </mxCell>
        <mxCell id="2l_hlP95QKtVeVs8BIYT-19" style="rounded=0;orthogonalLoop=1;jettySize=auto;html=1;fontSize=13;startArrow=classic;startFill=1;" edge="1" parent="2l_hlP95QKtVeVs8BIYT-2" source="2l_hlP95QKtVeVs8BIYT-11" target="2l_hlP95QKtVeVs8BIYT-15">
          <mxGeometry relative="1" as="geometry" />
        </mxCell>
        <mxCell id="2l_hlP95QKtVeVs8BIYT-16" value="&lt;b&gt;Internet&lt;/b&gt;" style="outlineConnect=0;dashed=0;verticalLabelPosition=bottom;verticalAlign=top;align=center;html=1;shape=mxgraph.aws3.internet_3;fillColor=#D2D3D3;gradientColor=none;fontSize=13;strokeWidth=2;" vertex="1" parent="1">
          <mxGeometry x="20" y="40" width="60" height="40" as="geometry" />
        </mxCell>
        <mxCell id="2l_hlP95QKtVeVs8BIYT-17" style="edgeStyle=orthogonalEdgeStyle;rounded=0;orthogonalLoop=1;jettySize=auto;html=1;fontSize=13;startArrow=classic;startFill=1;" edge="1" parent="1" source="2l_hlP95QKtVeVs8BIYT-9" target="2l_hlP95QKtVeVs8BIYT-16">
          <mxGeometry relative="1" as="geometry" />
        </mxCell>
      </root>
    </mxGraphModel>
  </diagram>
</mxfile>
